<svg id="svg" version="1.1" 
    xmlns="http://www.w3.org/2000/svg" 
    xmlns:xlink="http://www.w3.org/1999/xlink" width="400" height="400" viewBox="0, 0, 400,400">
    <g id="svgg">
        <path id="path0" d="M180.735 53.127 C 158.521 54.840,128.572 67.796,107.031 85.013 C 49.928 130.655,35.217 213.019,72.959 275.781 C 112.936 342.261,196.966 367.051,265.620 332.620 C 339.490 295.572,369.028 206.913,332.058 133.203 C 311.419 92.055,268.477 60.502,223.828 53.678 C 219.094 52.955,188.112 52.559,180.735 53.127 M218.164 70.091 C 247.453 74.056,274.179 86.989,292.676 106.149 C 298.169 111.840,296.838 114.822,278.673 137.500 C 262.840 157.268,261.994 157.554,250.574 147.011 C 233.091 130.870,217.983 125.654,195.740 128.082 C 127.283 135.553,105.820 221.782,162.869 260.142 C 193.445 280.701,230.742 276.962,252.251 251.181 C 263.292 237.946,267.266 238.642,282.013 256.397 C 301.807 280.229,302.855 283.960,292.615 294.157 C 250.960 335.636,182.488 342.825,131.952 311.024 C 87.804 283.244,64.980 233.092,72.231 179.797 C 81.579 111.088,148.632 60.680,218.164 70.091 M194.336 77.183 C 193.691 77.271,191.494 77.537,189.453 77.775 C 145.747 82.853,103.417 116.324,88.481 157.615 C 64.001 225.291,101.254 297.399,170.811 316.973 C 192.058 322.953,220.726 322.016,241.744 314.656 C 259.849 308.317,283.273 293.344,287.315 285.528 C 290.325 279.705,277.822 262.209,266.654 256.617 C 262.522 254.547,262.646 254.515,256.641 259.204 C 236.526 274.909,220.637 280.982,199.609 281.005 C 139.646 281.071,101.342 217.245,128.609 162.695 C 138.762 142.381,159.958 125.015,181.445 119.405 C 205.673 113.080,227.531 117.504,247.912 132.858 C 255.185 138.338,257.044 139.300,259.224 138.713 C 266.702 136.699,281.531 119.459,282.314 111.867 L 282.537 109.712 279.840 107.073 C 267.274 94.779,246.779 83.837,228.516 79.672 C 219.152 77.536,201.258 76.233,194.336 77.183 M320.313 143.899 C 320.313 143.981,313.272 155.363,304.667 169.192 L 289.021 194.336 286.471 194.631 C 285.069 194.793,264.596 194.881,240.976 194.826 L 198.031 194.727 258.683 169.277 C 314.589 145.820,320.313 143.463,320.313 143.899 M289.133 197.168 C 290.228 198.454,320.406 247.693,320.216 247.883 C 320.111 247.988,292.624 236.598,259.134 222.572 L 198.242 197.070 241.992 196.872 C 266.055 196.764,286.374 196.632,287.146 196.579 C 288.091 196.515,288.741 196.708,289.133 197.168 " stroke="none" fill="#fbfbfb" fill-rule="evenodd"></path>
        <path id="path1" d="M182.227 0.593 C 85.212 9.474,9.136 85.737,0.584 182.679 C 0.089 188.297,0.004 204.643,0.002 294.638 L 0.000 400.017 108.301 399.891 L 216.602 399.765 223.242 398.907 C 335.636 384.393,413.090 284.626,398.397 173.294 C 384.456 67.655,288.353 -9.122,182.227 0.593 M215.625 52.740 C 271.721 56.124,325.931 101.448,342.365 158.704 C 373.022 265.521,279.399 367.451,170.806 345.483 C 83.008 327.723,30.969 236.645,59.895 151.367 C 76.726 101.745,122.417 62.758,174.414 53.650 C 181.105 52.478,203.197 51.990,215.625 52.740 M191.973 69.517 C 94.850 76.724,39.614 184.278,90.048 267.984 C 120.402 318.363,181.275 341.896,238.446 325.355 C 258.820 319.460,278.099 308.243,292.406 293.960 C 302.488 283.895,301.563 280.450,282.642 257.617 C 267.007 238.750,263.617 238.036,252.553 251.280 C 229.263 279.159,187.920 281.201,156.783 256.009 C 138.674 241.358,130.262 223.579,130.282 200.000 C 130.320 157.142,163.854 125.627,207.446 127.481 C 225.609 128.253,235.088 132.484,250.772 146.820 C 260.196 155.434,261.477 155.665,267.536 149.844 C 274.372 143.279,291.177 121.679,293.998 115.831 C 296.246 111.175,296.020 110.008,292.090 105.961 C 268.032 81.190,228.516 66.806,191.973 69.517 M213.338 76.956 C 232.011 78.774,248.664 84.463,263.073 93.948 C 274.288 101.330,282.813 108.596,282.813 110.772 C 282.812 119.149,265.280 139.063,257.904 139.063 C 256.162 139.063,253.134 137.263,247.266 132.739 C 205.423 100.489,144.426 120.140,124.833 172.183 C 118.618 188.690,118.462 211.118,124.449 227.249 C 138.782 265.869,176.611 287.215,216.291 279.073 C 231.052 276.045,241.013 271.041,256.641 258.802 C 262.180 254.465,262.111 254.495,264.502 255.290 C 273.015 258.117,287.224 274.141,288.150 281.958 C 289.249 291.240,257.409 311.534,231.408 318.124 C 220.506 320.887,194.476 321.958,183.203 320.107 C 111.273 308.300,65.351 236.166,85.349 166.395 C 101.149 111.269,157.964 71.566,213.338 76.956 " stroke="none" fill="#044484" fill-rule="evenodd"></path>
        <path id="path2" d="M259.015 169.265 L 198.303 194.727 221.710 194.849 C 234.584 194.917,254.961 194.850,266.992 194.701 L 288.867 194.431 303.906 170.232 C 312.178 156.923,319.270 145.520,319.667 144.892 C 320.662 143.319,325.928 141.202,259.015 169.265 M199.337 197.308 C 200.496 197.983,320.087 248.012,320.221 247.878 C 320.289 247.810,313.284 236.307,304.655 222.315 L 288.966 196.875 243.799 196.887 C 212.099 196.895,198.843 197.021,199.337 197.308 " stroke="none" fill="#e80505" fill-rule="evenodd"></path>
        <path id="path3" d="M196.191 52.635 C 198.501 52.704,202.280 52.704,204.590 52.635 C 206.899 52.566,205.010 52.510,200.391 52.510 C 195.771 52.510,193.882 52.566,196.191 52.635 M197.754 76.832 C 198.130 76.930,198.745 76.930,199.121 76.832 C 199.497 76.734,199.189 76.653,198.438 76.653 C 197.686 76.653,197.378 76.734,197.754 76.832 M96.484 93.945 C 95.536 94.912,94.847 95.703,94.955 95.703 C 95.062 95.703,95.926 94.912,96.875 93.945 C 97.824 92.979,98.512 92.188,98.405 92.188 C 98.297 92.188,97.433 92.979,96.484 93.945 M92.755 97.754 L 91.211 99.414 92.871 97.870 C 93.784 97.021,94.531 96.274,94.531 96.210 C 94.531 95.914,94.191 96.210,92.755 97.754 M200.488 117.081 C 201.294 117.166,202.612 117.166,203.418 117.081 C 204.224 116.997,203.564 116.928,201.953 116.928 C 200.342 116.928,199.683 116.997,200.488 117.081 M199.907 127.620 C 200.393 127.713,201.096 127.710,201.469 127.612 C 201.843 127.514,201.445 127.438,200.586 127.442 C 199.727 127.447,199.421 127.527,199.907 127.620 M206.738 127.613 C 207.114 127.711,207.729 127.711,208.105 127.613 C 208.481 127.515,208.174 127.434,207.422 127.434 C 206.670 127.434,206.362 127.515,206.738 127.613 M143.933 141.895 L 141.602 144.336 144.043 142.004 C 146.311 139.839,146.663 139.453,146.374 139.453 C 146.314 139.453,145.215 140.552,143.933 141.895 M120.039 198.828 C 120.039 200.010,120.112 200.493,120.202 199.902 C 120.291 199.312,120.291 198.345,120.202 197.754 C 120.112 197.163,120.039 197.646,120.039 198.828 M80.594 200.000 C 80.594 201.396,80.665 201.968,80.751 201.270 C 80.838 200.571,80.838 199.429,80.751 198.730 C 80.665 198.032,80.594 198.604,80.594 200.000 M348.172 200.000 C 348.172 201.396,348.243 201.968,348.329 201.270 C 348.416 200.571,348.416 199.429,348.329 198.730 C 348.243 198.032,348.172 198.604,348.172 200.000 M149.219 249.023 C 149.948 249.775,150.632 250.391,150.739 250.391 C 150.847 250.391,150.338 249.775,149.609 249.023 C 148.881 248.271,148.196 247.656,148.089 247.656 C 147.982 247.656,148.490 248.271,149.219 249.023 M151.172 250.903 C 151.172 250.971,151.743 251.542,152.441 252.173 L 153.711 253.320 152.564 252.051 C 151.494 250.867,151.172 250.602,151.172 250.903 M247.056 257.129 L 245.117 259.180 247.168 257.241 C 248.296 256.175,249.219 255.252,249.219 255.190 C 249.219 254.899,248.857 255.223,247.056 257.129 M115.820 285.156 C 117.096 286.445,118.227 287.500,118.335 287.500 C 118.442 287.500,117.487 286.445,116.211 285.156 C 114.935 283.867,113.804 282.813,113.696 282.813 C 113.589 282.813,114.545 283.867,115.820 285.156 M108.984 292.773 C 109.713 293.525,110.397 294.141,110.505 294.141 C 110.612 294.141,110.104 293.525,109.375 292.773 C 108.646 292.021,107.962 291.406,107.855 291.406 C 107.747 291.406,108.256 292.021,108.984 292.773 M290.796 295.801 L 289.648 297.070 290.918 295.923 C 291.616 295.292,292.188 294.721,292.188 294.653 C 292.188 294.352,291.865 294.617,290.796 295.801 M304.484 304.785 L 300.977 308.398 304.590 304.891 C 307.946 301.633,308.381 301.172,308.097 301.172 C 308.039 301.172,306.413 302.798,304.484 304.785 M95.313 304.883 C 96.697 306.279,97.917 307.422,98.024 307.422 C 98.132 307.422,97.087 306.279,95.703 304.883 C 94.319 303.486,93.099 302.344,92.991 302.344 C 92.884 302.344,93.928 303.486,95.313 304.883 M195.215 320.993 C 196.772 321.067,199.321 321.067,200.879 320.993 C 202.437 320.919,201.162 320.858,198.047 320.858 C 194.932 320.858,193.657 320.919,195.215 320.993 " stroke="none" fill="#4073a1" fill-rule="evenodd"></path>
        <path id="path4" d="M189.746 52.619 C 190.229 52.713,191.021 52.713,191.504 52.619 C 191.987 52.526,191.592 52.450,190.625 52.450 C 189.658 52.450,189.263 52.526,189.746 52.619 M209.277 52.619 C 209.761 52.713,210.552 52.713,211.035 52.619 C 211.519 52.526,211.123 52.450,210.156 52.450 C 209.189 52.450,208.794 52.526,209.277 52.619 M304.883 95.703 C 306.591 97.422,308.077 98.828,308.185 98.828 C 308.292 98.828,306.982 97.422,305.273 95.703 C 303.565 93.984,302.079 92.578,301.971 92.578 C 301.864 92.578,303.174 93.984,304.883 95.703 M291.992 105.859 C 292.831 106.719,293.606 107.422,293.713 107.422 C 293.821 107.422,293.222 106.719,292.383 105.859 C 291.544 105.000,290.769 104.297,290.662 104.297 C 290.554 104.297,291.153 105.000,291.992 105.859 M116.002 114.355 L 113.867 116.602 116.113 114.466 C 118.200 112.483,118.538 112.109,118.248 112.109 C 118.187 112.109,117.177 113.120,116.002 114.355 M250.000 146.216 C 250.000 146.283,250.571 146.854,251.270 147.486 L 252.539 148.633 251.392 147.363 C 250.322 146.180,250.000 145.914,250.000 146.216 M150.391 149.023 C 149.442 149.990,148.753 150.781,148.861 150.781 C 148.968 150.781,149.832 149.990,150.781 149.023 C 151.730 148.057,152.419 147.266,152.311 147.266 C 152.204 147.266,151.339 148.057,150.391 149.023 M267.969 149.414 C 267.020 150.381,266.331 151.172,266.439 151.172 C 266.546 151.172,267.411 150.381,268.359 149.414 C 269.308 148.447,269.997 147.656,269.889 147.656 C 269.782 147.656,268.918 148.447,267.969 149.414 M52.060 198.047 C 52.060 199.014,52.136 199.409,52.229 198.926 C 52.322 198.442,52.322 197.651,52.229 197.168 C 52.136 196.685,52.060 197.080,52.060 198.047 M52.052 201.758 C 52.056 202.617,52.136 202.923,52.229 202.437 C 52.323 201.951,52.319 201.248,52.222 200.874 C 52.124 200.501,52.047 200.898,52.052 201.758 M348.138 203.516 C 348.138 204.268,348.218 204.575,348.316 204.199 C 348.414 203.823,348.414 203.208,348.316 202.832 C 348.218 202.456,348.138 202.764,348.138 203.516 M143.555 257.813 C 144.613 258.887,145.566 259.766,145.674 259.766 C 145.781 259.766,145.003 258.887,143.945 257.813 C 142.887 256.738,141.934 255.859,141.826 255.859 C 141.719 255.859,142.497 256.738,143.555 257.813 M273.828 261.450 C 273.828 261.518,274.399 262.089,275.098 262.720 L 276.367 263.867 275.220 262.598 C 274.150 261.414,273.828 261.149,273.828 261.450 M204.004 320.972 C 204.380 321.071,204.995 321.071,205.371 320.972 C 205.747 320.874,205.439 320.794,204.688 320.794 C 203.936 320.794,203.628 320.874,204.004 320.972 " stroke="none" fill="#094c84" fill-rule="evenodd"></path>
        <path id="path5" d="M182.324 53.010 C 182.808 53.103,183.599 53.103,184.082 53.010 C 184.565 52.917,184.170 52.841,183.203 52.841 C 182.236 52.841,181.841 52.917,182.324 53.010 M215.137 53.010 C 215.620 53.103,216.411 53.103,216.895 53.010 C 217.378 52.917,216.982 52.841,216.016 52.841 C 215.049 52.841,214.653 52.917,215.137 53.010 M201.674 76.852 C 202.918 76.929,204.851 76.929,205.971 76.850 C 207.091 76.771,206.074 76.708,203.711 76.709 C 201.348 76.710,200.431 76.774,201.674 76.852 M108.781 107.520 L 105.273 111.133 108.887 107.625 C 110.874 105.696,112.500 104.070,112.500 104.012 C 112.500 103.728,112.039 104.164,108.781 107.520 M119.120 111.621 L 117.773 113.086 119.238 111.740 C 120.044 110.999,120.703 110.340,120.703 110.275 C 120.703 109.977,120.373 110.258,119.120 111.621 M196.777 117.073 C 197.261 117.166,198.052 117.166,198.535 117.073 C 199.019 116.979,198.623 116.903,197.656 116.903 C 196.689 116.903,196.294 116.979,196.777 117.073 M205.371 117.073 C 205.854 117.166,206.646 117.166,207.129 117.073 C 207.612 116.979,207.217 116.903,206.250 116.903 C 205.283 116.903,204.888 116.979,205.371 117.073 M203.034 127.627 C 203.736 127.714,204.791 127.712,205.378 127.623 C 205.965 127.534,205.391 127.463,204.102 127.465 C 202.813 127.467,202.332 127.540,203.034 127.627 M269.702 131.348 L 268.555 132.617 269.824 131.470 C 270.522 130.839,271.094 130.268,271.094 130.200 C 271.094 129.899,270.771 130.164,269.702 131.348 M147.436 138.379 L 146.289 139.648 147.559 138.501 C 148.742 137.432,149.008 137.109,148.706 137.109 C 148.639 137.109,148.067 137.681,147.436 138.379 M247.656 144.263 C 247.656 144.330,248.228 144.901,248.926 145.532 L 250.195 146.680 249.048 145.410 C 247.979 144.227,247.656 143.961,247.656 144.263 M152.905 146.973 L 151.758 148.242 153.027 147.095 C 154.211 146.025,154.476 145.703,154.175 145.703 C 154.107 145.703,153.536 146.274,152.905 146.973 M52.450 190.234 C 52.450 191.201,52.526 191.597,52.619 191.113 C 52.713 190.630,52.713 189.839,52.619 189.355 C 52.526 188.872,52.450 189.268,52.450 190.234 M71.192 191.211 C 71.197 192.070,71.277 192.376,71.370 191.890 C 71.463 191.404,71.460 190.701,71.362 190.327 C 71.264 189.954,71.188 190.352,71.192 191.211 M347.747 191.797 C 347.747 192.549,347.827 192.856,347.926 192.480 C 348.024 192.104,348.024 191.489,347.926 191.113 C 347.827 190.737,347.747 191.045,347.747 191.797 M120.056 193.945 C 120.057 195.664,120.126 196.319,120.208 195.400 C 120.291 194.481,120.290 193.075,120.206 192.275 C 120.122 191.475,120.054 192.227,120.056 193.945 M271.800 194.823 C 274.444 194.891,278.663 194.891,281.175 194.823 C 283.687 194.755,281.523 194.699,276.367 194.700 C 271.211 194.700,269.156 194.756,271.800 194.823 M286.230 196.760 C 286.714 196.853,287.505 196.853,287.988 196.760 C 288.472 196.667,288.076 196.591,287.109 196.591 C 286.143 196.591,285.747 196.667,286.230 196.760 M120.061 204.102 C 120.059 206.035,120.125 206.875,120.207 205.969 C 120.289 205.062,120.290 203.480,120.209 202.453 C 120.129 201.426,120.062 202.168,120.061 204.102 M130.169 205.078 C 130.169 205.830,130.249 206.138,130.347 205.762 C 130.446 205.386,130.446 204.771,130.347 204.395 C 130.249 204.019,130.169 204.326,130.169 205.078 M80.950 207.813 C 80.950 208.564,81.030 208.872,81.129 208.496 C 81.227 208.120,81.227 207.505,81.129 207.129 C 81.030 206.753,80.950 207.061,80.950 207.813 M347.747 208.594 C 347.747 209.346,347.827 209.653,347.926 209.277 C 348.024 208.901,348.024 208.286,347.926 207.910 C 347.827 207.534,347.747 207.842,347.747 208.594 M52.450 209.375 C 52.450 210.342,52.526 210.737,52.619 210.254 C 52.713 209.771,52.713 208.979,52.619 208.496 C 52.526 208.013,52.450 208.408,52.450 209.375 M71.184 211.719 C 71.184 212.471,71.265 212.778,71.363 212.402 C 71.461 212.026,71.461 211.411,71.363 211.035 C 71.265 210.659,71.184 210.967,71.184 211.719 M274.202 247.754 C 275.821 249.479,276.172 249.789,276.172 249.495 C 276.172 249.433,275.337 248.598,274.316 247.640 L 272.461 245.898 274.202 247.754 M200.688 273.323 C 201.174 273.417,201.877 273.413,202.251 273.315 C 202.624 273.217,202.227 273.141,201.367 273.145 C 200.508 273.150,200.202 273.230,200.688 273.323 M207.719 273.323 C 208.205 273.417,208.908 273.413,209.282 273.315 C 209.655 273.217,209.258 273.141,208.398 273.145 C 207.539 273.150,207.233 273.230,207.719 273.323 M197.572 281.148 C 198.707 281.227,200.465 281.226,201.478 281.146 C 202.491 281.066,201.563 281.001,199.414 281.002 C 197.266 281.003,196.437 281.069,197.572 281.148 M119.531 288.403 C 119.531 288.471,120.103 289.042,120.801 289.673 L 122.070 290.820 120.923 289.551 C 119.854 288.367,119.531 288.102,119.531 288.403 M106.250 290.039 C 106.979 290.791,107.663 291.406,107.770 291.406 C 107.878 291.406,107.369 290.791,106.641 290.039 C 105.912 289.287,105.228 288.672,105.120 288.672 C 105.013 288.672,105.521 289.287,106.250 290.039 M111.719 295.508 C 112.448 296.260,113.132 296.875,113.239 296.875 C 113.347 296.875,112.838 296.260,112.109 295.508 C 111.381 294.756,110.696 294.141,110.589 294.141 C 110.482 294.141,110.990 294.756,111.719 295.508 M89.453 298.560 C 89.453 298.627,90.024 299.198,90.723 299.829 L 91.992 300.977 90.845 299.707 C 89.775 298.524,89.453 298.258,89.453 298.560 M209.277 320.588 C 209.761 320.681,210.552 320.681,211.035 320.588 C 211.519 320.495,211.123 320.419,210.156 320.419 C 209.189 320.419,208.794 320.495,209.277 320.588 M197.734 330.759 C 199.603 330.831,202.767 330.831,204.765 330.760 C 206.764 330.689,205.234 330.631,201.367 330.630 C 197.500 330.630,195.865 330.688,197.734 330.759 M197.380 348.337 C 198.839 348.412,201.124 348.412,202.458 348.336 C 203.791 348.260,202.598 348.198,199.805 348.199 C 197.012 348.199,195.920 348.262,197.380 348.337 " stroke="none" fill="#7ca4c1" fill-rule="evenodd"></path>
        <path id="path6" d="" stroke="none" fill="#402488" fill-rule="evenodd"></path>
        <path id="path7" d="" stroke="none" fill="#402488" fill-rule="evenodd"></path>
        <path id="path8" d="" stroke="none" fill="#402488" fill-rule="evenodd"></path>
    </g>
</svg>